<svg xmlns="http://www.w3.org/2000/svg" xmlns:xlink="http://www.w3.org/1999/xlink" version="1.1" x="0px" y="0px" viewBox="0 0 100 125" enable-background="new 0 0 100 100" xml:space="preserve"><path fill-rule="evenodd" clip-rule="evenodd" d="M53.7,66.475c1.386,0,2.51,1.124,2.51,2.51c0,1.386-1.124,2.51-2.51,2.51  c-1.386,0-2.51-1.124-2.51-2.51C51.19,67.599,52.314,66.475,53.7,66.475L53.7,66.475z M52.636,81.146  c0.832,0,1.505,0.674,1.505,1.506c0,0.832-0.674,1.505-1.505,1.505c-0.832,0-1.506-0.674-1.506-1.505  C51.129,81.82,51.804,81.146,52.636,81.146L52.636,81.146z M43.273,72.278c1.109,0,2.007,0.899,2.007,2.008  c0,1.109-0.898,2.008-2.007,2.008s-2.007-0.899-2.007-2.008C41.266,73.178,42.164,72.278,43.273,72.278L43.273,72.278z   M40.556,60.87L30.113,77.885c-1.369,2.231-3.15,6.86-1.649,9.386c0.89,1.497,3.327,1.707,4.853,1.707H66.36  c1.492,0,4.392-0.209,5.283-1.71c1.445-2.433-0.809-7.309-2.08-9.382L59.179,60.87C52.971,64.886,46.764,56.854,40.556,60.87z"/><circle fill-rule="evenodd" clip-rule="evenodd" cx="51.773" cy="44.739" r="3.011"/><circle fill-rule="evenodd" clip-rule="evenodd" cx="53.368" cy="6.506" r="1.506"/><circle fill-rule="evenodd" clip-rule="evenodd" cx="52.57" cy="28.572" r="1.506"/><circle fill-rule="evenodd" clip-rule="evenodd" cx="47.325" cy="15.026" r="2.008"/><circle fill-rule="evenodd" clip-rule="evenodd" cx="48.022" cy="35.908" r="2.008"/><circle fill-rule="evenodd" clip-rule="evenodd" cx="46.859" cy="54.698" r="2.008"/><path fill-rule="evenodd" clip-rule="evenodd" d="M39.961,20.717h20.077c1.104,0,2.007,0.904,2.007,2.008s-0.903,2.008-2.007,2.008  c0,29.925-0.282,25.644,14.659,50.003C80.704,84.53,79.278,95,66.36,95H33.317c-12.916,0-13.611-11.667-8.337-20.265  C39.865,50.465,39.961,54.5,39.961,24.732c-1.104,0-2.008-0.904-2.008-2.008S38.857,20.717,39.961,20.717L39.961,20.717z   M42.973,24.732c0,5.706,0.077,11.54-0.258,17.234c-0.22,3.73-0.662,7.359-1.85,10.918c-1.14,3.414-2.885,6.548-4.734,9.621  c-2.79,4.637-5.753,9.188-8.584,13.805c-2.029,3.309-3.838,8.853-1.672,12.499c1.525,2.567,4.677,3.18,7.442,3.18H66.36  c2.786,0,6.313-0.558,7.873-3.183c2.165-3.645-0.125-9.271-2.103-12.495c-2.826-4.607-5.782-9.16-8.545-13.799  c-1.822-3.059-3.529-6.176-4.626-9.577c-1.146-3.555-1.542-7.185-1.732-10.899c-0.292-5.724-0.201-11.569-0.201-17.303H42.973z"/></svg>